<svg data-v-423bf9ae="" xmlns="http://www.w3.org/2000/svg" viewBox="0 0 355 90" class="iconLeft"><!----><!----><!----><g data-v-423bf9ae="" id="be368961-308e-4f65-ad7a-806e291d8e9b" fill="white" transform="matrix(4.8979591836734695,0,0,4.8979591836734695,104.85116970052525,12.25714147455838)"><path d="M7.52 1.05L0.84 1.05L0.84 12.60L3.47 12.60L3.47 7.97L7.21 7.97L7.21 5.66L3.47 5.66L3.47 3.36L7.52 3.36ZM7.81 9.02C7.81 11.12 9.28 12.81 11.38 12.81C12.36 12.81 13.20 12.38 13.73 11.79L13.76 11.79L13.76 12.60L16.21 12.60L16.21 5.42L13.73 5.42L13.73 6.10C13.15 5.53 12.35 5.21 11.38 5.21C9.28 5.21 7.81 6.92 7.81 9.02ZM10.44 9.02C10.44 8.02 11.19 7.32 12.12 7.32C13.05 7.32 13.79 8.02 13.79 9.02C13.79 10.00 13.09 10.70 12.12 10.70C11.12 10.70 10.44 10.00 10.44 9.02ZM21.71 7.24C22.46 7.24 22.92 7.57 22.92 7.57L23.76 5.88C23.76 5.88 22.95 5.21 21.35 5.21C19.26 5.21 17.37 6.92 17.37 9.03C17.37 11.13 19.28 12.81 21.35 12.81C22.95 12.81 23.76 12.17 23.76 12.17L22.92 10.44C22.92 10.44 22.46 10.78 21.71 10.78C20.78 10.78 20.01 10.00 20.01 9.00C20.01 8.02 20.78 7.24 21.71 7.24ZM26.01 0.98C25.20 0.98 24.54 1.64 24.54 2.45C24.54 3.26 25.20 3.92 26.01 3.92C26.82 3.92 27.48 3.26 27.48 2.45C27.48 1.64 26.82 0.98 26.01 0.98ZM24.74 5.42L27.22 5.42L27.22 12.60L24.74 12.60ZM28.97 12.60L31.44 12.60L31.44 0.56L28.97 0.56ZM34.40 0.98C33.59 0.98 32.93 1.64 32.93 2.45C32.93 3.26 33.59 3.92 34.40 3.92C35.21 3.92 35.87 3.26 35.87 2.45C35.87 1.64 35.21 0.98 34.40 0.98ZM33.12 5.42L35.60 5.42L35.60 12.60L33.12 12.60ZM37.77 5.42L36.74 5.42L36.74 7.31L37.77 7.31L37.77 10.07C37.77 11.34 38.25 12.81 40.22 12.81C41.24 12.81 42.04 12.36 42.04 12.36L41.43 10.36C41.43 10.36 41.13 10.58 40.81 10.58C40.42 10.58 40.25 10.26 40.25 9.59L40.25 7.31L41.76 7.31L41.76 5.42L40.25 5.42L40.25 2.74L37.77 2.74ZM42.36 9.02C42.36 11.23 44.10 12.81 46.69 12.81C49.17 12.81 50.97 11.23 50.97 9.02C50.97 6.78 49.07 5.21 46.69 5.21C44.27 5.21 42.36 6.78 42.36 9.02ZM45.00 9.02C45.00 8.02 45.74 7.32 46.68 7.32C47.60 7.32 48.34 8.02 48.34 9.02C48.34 10.00 47.64 10.70 46.68 10.70C45.67 10.70 45.00 10.00 45.00 9.02Z"></path></g><!----><g data-v-423bf9ae="" id="b8832192-389c-41f3-9010-3f84c9485a94" transform="matrix(2.3143978391199918,0,0,2.3143978391199918,-71.25009365397443,-67.97320659730867)" stroke="none" fill="white"><switch><g><path d="M60.104 68.538H40.367c-5.156 0-9.351-4.195-9.351-9.352V39.003c0-5.156 4.194-9.352 9.351-9.352h19.737c5.156 0 9.352 4.195 9.352 9.352v20.184c0 5.156-4.195 9.351-9.352 9.351zM40.367 32.651a6.359 6.359 0 00-6.351 6.352v20.184a6.359 6.359 0 006.351 6.352h19.737a6.36 6.36 0 006.352-6.352V39.003a6.36 6.36 0 00-6.352-6.352H40.367z"></path><path d="M50.57 51.197h-7.658a4.55 4.55 0 01-4.546-4.546v-6.832a4.55 4.55 0 014.546-4.546h4.89a1.5 1.5 0 010 3h-4.89c-.853 0-1.546.693-1.546 1.546v6.832c0 .853.693 1.546 1.546 1.546h7.658c.853 0 1.546-.693 1.546-1.546v-3.806a1.5 1.5 0 013 0v3.806a4.55 4.55 0 01-4.546 4.546z"></path><path d="M46.931 46.701c-.441 0-.879-.193-1.175-.566l-2.502-3.145a1.5 1.5 0 112.347-1.867l2.502 3.145a1.5 1.5 0 01-1.172 2.433z"></path><path d="M46.929 46.701a1.501 1.501 0 01-1.389-2.063c.1-.246 2.5-6.062 7.775-9.851a1.5 1.5 0 011.75 2.436c-4.578 3.289-6.724 8.49-6.744 8.542-.238.583-.8.936-1.392.936zM60.605 56.195H39.866a1.5 1.5 0 010-3h20.739a1.5 1.5 0 010 3zM51.688 61.195H39.866a1.5 1.5 0 010-3h11.822a1.5 1.5 0 010 3z"></path></g></switch></g><!----></svg>